<?xml version="1.0" standalone="no"?>
<svg xmlns="http://www.w3.org/2000/svg" width="24" height="24"><rect width="24" height="24" opacity="0"></rect><g><path d="M12 0.74Q8.93 0.74 6.35 2.26Q3.77 3.77 2.26 6.35Q0.74 8.93 0.74 12Q0.74 15.07 2.26 17.65Q3.77 20.23 6.35 21.74Q8.93 23.26 12 23.26Q15.05 23.26 17.64 21.74Q20.23 20.23 21.74 17.64Q23.26 15.05 23.26 12Q23.26 8.95 21.74 6.36Q20.23 3.77 17.64 2.26Q15.05 0.74 12 0.74ZM12 20.74Q9.6 20.74 7.6 19.57Q5.59 18.41 4.43 16.42Q3.26 14.42 3.26 12Q3.26 9.6 4.43 7.6Q5.59 5.59 7.6 4.43Q9.6 3.26 12 3.26Q14.42 3.26 16.42 4.43Q18.41 5.59 19.57 7.6Q20.74 9.6 20.74 12Q20.74 14.42 19.57 16.42Q18.41 18.41 16.42 19.57Q14.42 20.74 12 20.74Z" fill="rgba(0,0,0,0.9019607843137255)"></path><path d="M13.18 6.46Q13.18 5.95 12.83 5.59Q12.48 5.23 12 5.23Q11.52 5.23 11.17 5.59Q10.82 5.95 10.82 6.46L10.82 11.98Q10.82 12.43 11.09 12.74L11.16 12.84L15.67 17.38Q16.03 17.71 16.52 17.71Q17.02 17.71 17.38 17.38Q17.69 16.99 17.69 16.51Q17.69 16.03 17.35 15.67L13.18 11.52L13.18 6.46Z" fill="rgba(0,0,0,0.9019607843137255)"></path></g></svg>