<?xml version="1.0" standalone="no"?>
<svg xmlns="http://www.w3.org/2000/svg" width="24" height="24"><rect width="24" height="24" opacity="0"></rect><g><path d="M12 1.9Q11.18 1.9 10.6 2.47Q10.01 3.05 10.01 3.89Q10.01 4.73 10.58 5.32Q11.16 5.9 12 5.9Q12.84 5.9 13.42 5.32Q13.99 4.73 13.99 3.89Q13.99 3.05 13.42 2.47Q12.84 1.9 12 1.9ZM4.01 5.59Q4.01 5.9 4.19 6.14Q4.37 6.38 4.63 6.5L9.12 8.62Q9.38 8.74 9.54 8.99Q9.7 9.24 9.7 9.53L9.7 12.36Q9.7 13.42 9.48 14.42Q8.11 20.98 8.11 21Q8.11 21.5 8.4 21.8Q8.69 22.1 9.1 22.1Q9.48 22.1 9.74 21.88Q10.01 21.65 10.08 21.31L11.66 15.14Q11.71 14.98 11.87 14.92Q12.02 14.86 12.17 14.92Q12.31 14.98 12.36 15.14L13.92 21.29Q14.02 21.65 14.28 21.86Q14.54 22.08 14.9 22.08Q15.31 22.08 15.61 21.79Q15.91 21.5 15.91 21.1Q15.91 20.93 14.52 14.4Q14.33 13.32 14.33 12.36L14.33 9.5Q14.33 9.22 14.48 8.98Q14.64 8.74 14.9 8.59L19.44 6.48Q19.7 6.36 19.86 6.11Q20.02 5.86 20.02 5.57Q20.02 5.16 19.73 4.86Q19.44 4.56 19.03 4.56Q18.89 4.56 17.64 5.05Q16.39 5.54 13.15 6.84Q12.6 7.06 12.01 7.07Q11.42 7.08 10.9 6.86Q7.63 5.54 6.38 5.06Q5.14 4.58 4.99 4.58Q4.58 4.58 4.3 4.88Q4.01 5.18 4.01 5.59Z" fill="rgba(0,0,0,0.9019607843137255)"></path></g></svg>