<?xml version="1.0" standalone="no"?>
<svg xmlns="http://www.w3.org/2000/svg" width="24" height="24"><rect width="24" height="24" opacity="0"></rect><g><path d="M2.69 6.29Q2.34 6.07 1.99 6.14Q1.63 6.22 1.39 6.5Q1.15 6.79 1.15 7.18L1.15 16.82Q1.15 17.21 1.39 17.49Q1.63 17.76 1.99 17.83Q2.34 17.9 2.69 17.71L11.04 12.91Q11.38 12.7 11.5 12.35Q11.62 12 11.5 11.64Q11.39 11.28 11.04 11.09L2.69 6.29ZM13.99 6.29Q13.64 6.07 13.26 6.14Q12.89 6.22 12.65 6.5Q12.41 6.79 12.41 7.18L12.41 16.82Q12.41 17.21 12.65 17.49Q12.9 17.76 13.27 17.83Q13.64 17.9 13.99 17.71L22.32 12.91Q22.68 12.7 22.79 12.35Q22.9 12 22.78 11.64Q22.67 11.28 22.32 11.09L13.99 6.29Z" fill="rgba(0,0,0,0.9019607843137255)"></path></g></svg>