<?xml version="1.0" standalone="no"?>
<svg xmlns="http://www.w3.org/2000/svg" width="24" height="24"><rect width="24" height="24" opacity="0"></rect><g><path d="M12.02 9.14Q12.82 9.14 13.46 9.53Q14.11 9.91 14.48 10.57Q14.86 11.23 14.86 12.02Q14.86 12.82 14.48 13.46Q14.11 14.11 13.46 14.48Q12.82 14.86 12 14.86Q11.21 14.86 10.55 14.47Q9.89 14.09 9.52 13.43Q9.14 12.77 9.14 11.98Q9.14 11.18 9.53 10.54Q9.91 9.89 10.57 9.52Q11.23 9.14 12.02 9.14ZM12.05 7.39Q10.8 7.39 9.72 8Q8.64 8.62 8.02 9.67Q7.39 10.73 7.39 11.98Q7.39 13.22 8 14.3Q8.62 15.38 9.68 16.01Q10.75 16.63 12 16.63Q13.25 16.63 14.32 16.02Q15.38 15.41 16.01 14.34Q16.63 13.27 16.63 12.02Q16.63 10.78 16.02 9.71Q15.41 8.64 14.35 8.02Q13.3 7.39 12.05 7.39ZM13.56 22.8Q14.06 22.8 14.48 22.52Q14.9 22.25 15.12 21.79L15.91 19.94L16.08 19.87Q16.49 19.63 16.87 19.37L18.89 19.63Q19.42 19.68 19.86 19.46Q20.3 19.25 20.57 18.79L22.15 16.06Q22.42 15.6 22.38 15.11Q22.34 14.62 22.06 14.18L20.83 12.55L20.83 11.47L22.06 9.84Q22.37 9.41 22.39 8.9Q22.42 8.4 22.15 7.97L20.57 5.21Q20.33 4.78 19.88 4.55Q19.44 4.32 18.91 4.37L16.87 4.63Q16.49 4.34 15.98 4.1L15.17 2.18Q14.95 1.73 14.53 1.44Q14.11 1.15 13.61 1.15L10.44 1.15Q9.94 1.15 9.5 1.44Q9.07 1.73 8.86 2.18L8.04 4.1L7.82 4.22Q7.66 4.32 7.49 4.4Q7.32 4.49 7.18 4.61L5.11 4.37Q4.61 4.3 4.15 4.52Q3.7 4.75 3.43 5.18L1.85 7.94Q1.58 8.38 1.62 8.88Q1.66 9.38 1.94 9.82L3.19 11.47L3.19 12.48L1.94 14.14Q1.63 14.57 1.61 15.07Q1.58 15.58 1.85 16.01L3.41 18.74Q3.67 19.2 4.12 19.42Q4.56 19.63 5.09 19.58L7.1 19.34Q7.7 19.73 8.02 19.9L8.83 21.77Q9.02 22.25 9.44 22.52Q9.86 22.8 10.39 22.8L13.56 22.8ZM7.08 17.52L4.87 17.76L3.38 15.1L4.7 13.34Q4.94 12.98 4.94 12.6Q4.92 12.31 4.92 11.95Q4.92 11.59 4.94 11.3Q4.94 10.87 4.7 10.54L3.38 8.74L4.92 6.1L7.13 6.38Q7.37 6.41 7.58 6.35Q7.8 6.29 7.97 6.19Q8.4 5.88 9 5.59Q9.41 5.38 9.58 4.99L10.49 2.93L13.51 2.95L14.38 4.99Q14.52 5.35 14.95 5.59Q15.46 5.83 16.03 6.22Q16.44 6.48 16.85 6.41L19.06 6.17L20.54 8.83L19.25 10.54Q18.96 10.87 19.01 11.35Q19.03 11.64 19.03 12.01Q19.03 12.38 19.01 12.65Q18.98 13.1 19.25 13.46L20.54 15.19L19.01 17.83L16.87 17.57Q16.66 17.54 16.43 17.59Q16.2 17.64 16.03 17.76Q15.55 18.12 14.93 18.41Q14.76 18.5 14.59 18.66Q14.42 18.82 14.35 19.01L13.46 21L10.44 20.98L9.6 18.98Q9.41 18.58 9.02 18.38Q8.52 18.14 7.92 17.76Q7.63 17.54 7.25 17.54Z" fill="rgba(0,0,0,0.9019607843137255)"></path></g></svg>