<?xml version="1.0" standalone="no"?>
<svg xmlns="http://www.w3.org/2000/svg" width="24" height="24"><rect width="24" height="24" opacity="0"></rect><g mask="url(#hms_mask_0)"><path d="M20.69 13.22Q19.54 12.12 15.19 8.02L13.37 6.31Q12.77 5.76 11.99 5.76Q11.21 5.76 10.61 6.31L3.34 13.22Q3.07 13.49 2.95 13.81Q2.83 14.14 2.83 14.45L2.83 19.99Q2.83 20.71 3.19 21.34Q3.55 21.96 4.18 22.32Q4.8 22.68 5.52 22.68L18.5 22.68Q19.22 22.68 19.84 22.32Q20.45 21.96 20.81 21.34Q21.17 20.71 21.17 19.99L21.17 14.42Q21.17 14.09 21.04 13.76Q20.9 13.44 20.69 13.22Z" fill="rgba(0,0,0,0.9019607843137255)"></path><path d="M1.13 11.83Q1.46 12.17 2 12.18Q2.54 12.19 2.9 11.86L10.97 4.2Q11.45 3.74 12.01 3.74Q12.58 3.74 13.06 4.2L21.12 11.83Q21.48 12.19 22.01 12.19Q22.54 12.19 22.92 11.81Q23.23 11.42 23.23 10.91Q23.23 10.39 22.87 10.03L14.81 2.4Q14.02 1.66 13.01 1.4Q12 1.15 10.99 1.4Q9.98 1.66 9.19 2.4L1.15 10.01Q0.77 10.37 0.77 10.91Q0.77 11.45 1.13 11.83Z" fill="rgba(0,0,0,0.9019607843137255)"></path></g><defs><mask id="hms_mask_0"><rect width="24" height="24" fill="#ffffff"></rect><g><path d="M9.17 20.45L9.17 16.08Q9.17 15.02 9.98 14.27Q10.8 13.51 12 13.51Q13.2 13.51 14.02 14.27Q14.83 15.02 14.83 16.08L14.83 20.45Z" fill="#000000"></path></g></mask></defs></svg>