<?xml version="1.0" standalone="no"?>
<svg xmlns="http://www.w3.org/2000/svg" width="24" height="24"><rect width="24" height="24" opacity="0"></rect><g><path d="M3.5 2.26Q2.64 2.26 2.06 2.84Q1.49 3.43 1.49 4.25Q1.49 5.09 2.08 5.68Q2.66 6.26 3.5 6.26Q4.32 6.26 4.91 5.69Q5.5 5.11 5.5 4.25Q5.5 3.41 4.92 2.83Q4.34 2.26 3.5 2.26ZM3.5 10.01Q2.64 10.01 2.06 10.6Q1.49 11.18 1.49 12Q1.49 12.84 2.08 13.43Q2.66 14.02 3.5 14.02Q4.32 14.02 4.91 13.44Q5.5 12.86 5.5 12Q5.5 11.16 4.92 10.58Q4.34 10.01 3.5 10.01ZM3.5 17.74Q2.66 17.74 2.08 18.32Q1.49 18.91 1.49 19.75Q1.49 20.57 2.06 21.16Q2.64 21.74 3.5 21.74Q4.34 21.74 4.92 21.16Q5.5 20.57 5.5 19.75Q5.5 18.89 4.91 18.31Q4.32 17.74 3.5 17.74Z" fill="rgba(0,0,0,0.9019607843137255)"></path><path d="M21.24 5.5Q21.77 5.5 22.14 5.14Q22.51 4.78 22.51 4.25Q22.51 3.72 22.14 3.36Q21.77 3 21.24 3L8.16 3Q7.66 3 7.28 3.36Q6.91 3.72 6.91 4.25Q6.91 4.78 7.28 5.14Q7.66 5.5 8.16 5.5L21.24 5.5ZM21.24 13.25Q21.77 13.25 22.14 12.89Q22.51 12.53 22.51 12Q22.51 11.47 22.14 11.11Q21.77 10.75 21.24 10.75L8.16 10.75Q7.66 10.75 7.28 11.11Q6.91 11.47 6.91 12Q6.91 12.53 7.28 12.89Q7.66 13.25 8.16 13.25L21.24 13.25ZM21.24 21Q21.77 21 22.14 20.64Q22.51 20.28 22.51 19.75Q22.51 19.22 22.14 18.86Q21.77 18.5 21.24 18.5L8.16 18.5Q7.66 18.5 7.28 18.86Q6.91 19.22 6.91 19.75Q6.91 20.28 7.28 20.64Q7.66 21 8.16 21L21.24 21Z" fill="rgba(0,0,0,0.9019607843137255)"></path></g></svg>