<?xml version="1.0" standalone="no"?>
<svg xmlns="http://www.w3.org/2000/svg" width="24" height="24"><rect width="24" height="24" opacity="0"></rect><g><path d="M19.01 4.01Q19.46 4.01 19.73 4.27Q19.99 4.54 19.99 4.99L19.99 19.01Q19.99 19.46 19.73 19.73Q19.46 19.99 19.01 19.99L4.99 19.99Q4.54 19.99 4.27 19.73Q4.01 19.46 4.01 19.01L4.01 4.99Q4.01 4.54 4.27 4.27Q4.54 4.01 4.99 4.01L19.01 4.01ZM4.99 1.49Q4.03 1.49 3.23 1.96Q2.42 2.42 1.96 3.23Q1.49 4.03 1.49 4.99L1.49 19.01Q1.49 19.97 1.96 20.77Q2.42 21.58 3.23 22.04Q4.03 22.51 4.99 22.51L19.01 22.51Q19.97 22.51 20.77 22.04Q21.58 21.58 22.04 20.77Q22.51 19.97 22.51 19.01L22.51 4.99Q22.51 4.03 22.04 3.23Q21.58 2.42 20.77 1.96Q19.97 1.49 19.01 1.49L4.99 1.49Z" fill="rgba(0,0,0,0.9019607843137255)"></path><path d="M13.25 10.75L13.25 7.25Q13.25 6.72 12.89 6.36Q12.53 6 12 6Q11.47 6 11.11 6.36Q10.75 6.72 10.75 7.25L10.75 10.75L7.25 10.75Q6.72 10.75 6.36 11.11Q6 11.47 6 12Q6 12.53 6.36 12.89Q6.72 13.25 7.25 13.25L10.75 13.25L10.75 16.75Q10.75 17.28 11.11 17.64Q11.47 18 12 18Q12.53 18 12.89 17.64Q13.25 17.28 13.25 16.75L13.25 13.25L16.75 13.25Q17.28 13.25 17.64 12.89Q18 12.53 18 12Q18 11.47 17.64 11.11Q17.28 10.75 16.75 10.75Z" fill="rgba(0,0,0,0.9019607843137255)"></path></g></svg>