<?xml version="1.0" standalone="no"?>
<svg xmlns="http://www.w3.org/2000/svg" width="24" height="24"><rect width="24" height="24" opacity="0"></rect><g><path d="M21.41 5.14Q21.62 4.34 21.42 3.8Q21.22 3.26 20.66 3.08Q20.11 2.9 19.32 3.14Q17.95 3.55 16.26 4.84Q14.57 6.12 13.42 7.2Q12.12 8.38 9.22 11.57L8.98 11.83Q8.59 12.26 8.6 12.84Q8.62 13.42 9.02 13.82L10.7 15.5Q11.14 15.94 11.7 15.94Q12.26 15.94 12.67 15.58Q13.51 14.88 15.02 13.38Q16.54 11.88 17.93 10.32Q20.83 7.06 21.41 5.14ZM7.42 14.9Q6.67 14.74 5.92 15.02Q5.16 15.31 4.75 15.98Q4.54 16.34 4.39 16.92Q4.27 17.42 3.85 17.94Q3.43 18.46 2.93 18.86Q2.47 19.22 2.45 19.51Q2.42 19.8 2.86 20.06Q3.31 20.38 4.18 20.69Q5.04 21 5.83 21Q6.67 21 7.43 20.68Q8.18 20.35 8.69 19.75Q9.38 18.98 9.56 17.96Q9.74 16.94 9.14 16.06Q8.86 15.62 8.4 15.32Q7.94 15.02 7.42 14.9Z" fill="rgba(0,0,0,0.9019607843137255)"></path></g></svg>