<?xml version="1.0" standalone="no"?>
<svg xmlns="http://www.w3.org/2000/svg" width="24" height="24"><rect width="24" height="24" opacity="0"></rect><g><path d="M18.7 10.13L21.67 10.13Q22.03 10.13 22.27 9.88Q22.51 9.62 22.52 9.26Q22.54 8.9 22.27 8.66L19.42 5.83Q19.18 5.57 18.82 5.58Q18.46 5.59 18.2 5.83Q17.95 6.07 17.95 6.43L17.95 7.61L2.66 7.61Q2.14 7.61 1.78 7.97Q1.42 8.33 1.42 8.86Q1.42 9.38 1.78 9.76Q2.14 10.13 2.66 10.13ZM5.28 13.87L2.3 13.87Q1.94 13.87 1.7 14.12Q1.46 14.38 1.45 14.74Q1.44 15.1 1.7 15.34L4.58 18.14Q4.82 18.41 5.18 18.4Q5.54 18.38 5.8 18.14Q6.05 17.9 6.05 17.54L6.05 16.37L21.34 16.37Q21.86 16.37 22.22 16.01Q22.58 15.65 22.58 15.12Q22.58 14.59 22.22 14.23Q21.86 13.87 21.34 13.87Z" fill="rgba(0,0,0,0.9019607843137255)"></path></g></svg>