<?xml version="1.0" standalone="no"?>
<svg xmlns="http://www.w3.org/2000/svg" width="24" height="24"><rect width="24" height="24" opacity="0"></rect><g><path d="M20.14 5.64Q20.5 5.26 20.5 4.74Q20.5 4.22 20.14 3.86Q19.78 3.48 19.25 3.48Q18.72 3.48 18.36 3.86L12 10.22L5.64 3.86Q5.28 3.48 4.75 3.48Q4.22 3.48 3.84 3.86Q3.5 4.22 3.5 4.74Q3.5 5.26 3.82 5.64L10.2 12L3.82 18.34Q3.48 18.72 3.49 19.25Q3.5 19.78 3.84 20.14Q4.22 20.47 4.75 20.48Q5.28 20.5 5.64 20.14L12 13.78L18.36 20.14Q18.72 20.5 19.25 20.5Q19.78 20.5 20.14 20.14Q20.5 19.78 20.5 19.25Q20.5 18.72 20.14 18.34L13.8 12L20.14 5.64Z" fill="rgba(0,0,0,0.9019607843137255)"></path></g></svg>